<svg viewBox="0 0 1755 300" width="1755" height="300" xmlns="http://www.w3.org/2000/svg" version="1.1" xmlns:xlink="http://www.w3.org/1999/xlink"><path d="m0 126.75 22.425 -2.535c22.425 -2.73 67.275 -7.8 112.125 -17.94s89.7 -24.96 134.94 -22.035c45.045 2.925 90.675 23.595 135.72 29.445 45.24 5.85 90.09 -3.12 134.94 -8.385 44.85 -5.265 89.7 -6.435 134.55 -2.925s89.7 12.09 134.94 13.065c45.045 0.975 90.675 -5.655 135.72 -14.625 45.24 -9.165 90.09 -20.865 134.94 -22.23 44.85 -1.17 89.7 7.8 134.55 17.55s89.7 20.28 134.94 15.405c45.045 -4.875 90.675 -25.155 135.72 -24.18 45.24 0.975 90.09 23.205 134.94 22.425C1665.3 109.2 1710.15 85.8 1732.575 74.1L1755 62.4V0H0Z" fill="#111827" style="transition:all .4s cubic-bezier(.16,1,.3,1) 0s"/></svg>