<svg xmlns="http://www.w3.org/2000/svg" version="1.1" xmlns:xlink="http://www.w3.org/1999/xlink" xmlns:svgjs="http://svgjs.dev/svgjs" width="128" height="128" viewBox="0 0 128 128"><g transform="matrix(0.8046875,0,0,0.8046875,12.221578124999994,23.70817534179688)"><svg viewBox="0 0 96 75" data-background-color="#ffffff" preserveAspectRatio="xMidYMid meet" height="100" width="128" xmlns="http://www.w3.org/2000/svg" xmlns:xlink="http://www.w3.org/1999/xlink"><g id="tight-bounds" transform="matrix(1,0,0,1,0.25950000000000273,0.05354531249999184)"><svg viewBox="0 0 95.481 74.892909375" height="74.892909375" width="95.481"><g><svg viewBox="0 0 95.481 74.892909375" height="74.892909375" width="95.481"><g><svg viewBox="0 0 95.481 74.892909375" height="74.892909375" width="95.481"><g id="textblocktransform"><svg viewBox="0 0 95.481 74.892909375" height="74.892909375" width="95.481" id="textblock"><g><svg viewBox="0 0 95.481 74.892909375" height="74.892909375" width="95.481"><g><svg viewBox="0 0 95.481 74.892909375" height="74.892909375" width="95.481"><g><svg xmlns="http://www.w3.org/2000/svg" xmlns:xlink="http://www.w3.org/1999/xlink" version="1.1" x="0" y="0" viewBox="0 13.8 128 100.4" style="enable-background:new 0 0 128 128;" xml:space="preserve" height="74.892909375" width="95.481" class="icon-icon-0" data-fill-palette-color="accent" id="icon-0"><g fill="#20bb73" data-fill-palette-color="accent"><polygon points="106.7,42.7 99.6,49.8 113.8,64 99.6,78.2 106.7,85.3 128,64  " fill="#20bb73" data-fill-palette-color="accent"></polygon><polygon points="14.2,64 28.4,49.8 21.3,42.7 0,64 21.3,85.3 28.4,78.2  " fill="#20bb73" data-fill-palette-color="accent"></polygon><path d="M100.3 64L85.7 49.4 99.6 35.5 92.5 28.4 78.6 42.3 71.5 35.2 85.4 21.3 77.9 13.8 64 27.7 50.1 13.9 42.6 21.4 56.5 35.3 49.4 42.4 35.6 28.4 28.5 35.5 42.4 49.4 27.7 64 42.3 78.6 28.4 92.4 35.5 99.5 49.4 85.6 56.5 92.7 42.6 106.6 50.1 114.1 64 100.3 77.9 114.2 85.4 106.7 71.5 92.8 78.6 85.7 92.5 99.6 99.6 92.5 85.7 78.6zM64 85.3L42.7 64 64 42.7 85.3 64z" fill="#20bb73" data-fill-palette-color="accent"></path></g></svg></g></svg></g></svg></g></svg></g></svg></g></svg></g><defs></defs></svg><rect width="95.481" height="74.892909375" fill="none" stroke="none" visibility="hidden"></rect></g></svg></g></svg>