<svg xmlns="http://www.w3.org/2000/svg" version="1.1" xmlns:xlink="http://www.w3.org/1999/xlink" xmlns:svgjs="http://svgjs.dev/svgjs" width="1500" height="242" viewBox="0 0 1500 242">
  <g transform="matrix(1,0,0,1,-0.9090909090909918,-1.2127674356465548)"><svg viewBox="0 0 396 64" data-background-color="#000" preserveAspectRatio="xMidYMid meet" height="242" width="1500" xmlns="http://www.w3.org/2000/svg" xmlns:xlink="http://www.w3.org/1999/xlink">
      <g id="tight-bounds" transform="matrix(1,0,0,1,0.24ffffffffffff91,0.32073188380735473)"><svg viewBox="0 0 395.52 63.35853623238531" height="63.35853623238531" width="395.52">
          <g><svg viewBox="0 0 513.2167975810227 82.21244201204992" height="63.35853623238531" width="395.52">
              <g transform="matrix(1,0,0,1,117.69679758102276,13.818138977569355)"><svg viewBox="0 0 395.5199999999999 54.57616405691121" height="54.57616405691121" width="395.5199999999999">
                  <g id="textblocktransform"><svg viewBox="0 0 395.5199999999999 54.57616405691121" height="54.57616405691121" width="395.5199999999999" id="textblock">
                      <g><svg viewBox="0 0 395.5199999999999 54.57616405691121" height="54.57616405691121" width="395.5199999999999">
                          <g transform="matrix(1,0,0,1,0,0)"><svg width="395.5199999999999" viewBox="2.05 -36.04 307.13 42.39" height="54.57616405691121" data-palette-color="#000">
                              <path d="M32.32-18.55L32.32-16.97Q32.32-11.99 30.71-8.31 29.1-4.64 26.25-2.42L26.25-2.42 32.15 2.22 27.49 6.35 19.92 0.27Q18.63 0.49 17.24 0.49L17.24 0.49Q12.82 0.49 9.35-1.64 5.88-3.76 3.98-7.7 2.08-11.65 2.05-16.77L2.05-16.77 2.05-18.53Q2.05-23.78 3.94-27.77 5.83-31.76 9.29-33.9 12.74-36.04 17.19-36.04 21.63-36.04 25.09-33.9 28.54-31.76 30.43-27.77 32.32-23.78 32.32-18.55L32.32-18.55ZM24.9-16.85L24.9-18.58Q24.9-24.17 22.9-27.08 20.9-29.98 17.19-29.98L17.19-29.98Q13.5-29.98 11.5-27.11 9.5-24.24 9.47-18.7L9.47-18.7 9.47-16.97Q9.47-11.52 11.47-8.52 13.48-5.52 17.24-5.52L17.24-5.52Q20.92-5.52 22.9-8.41 24.88-11.3 24.9-16.85L24.9-16.85ZM57.25-35.55L64.6-35.55 64.6-12.13Q64.6-6.3 60.95-2.91 57.3 0.49 50.97 0.49L50.97 0.49Q44.75 0.49 41.09-2.81 37.42-6.1 37.35-11.87L37.35-11.87 37.35-35.55 44.68-35.55 44.68-12.08Q44.68-8.59 46.35-6.99 48.02-5.4 50.97-5.4L50.97-5.4Q57.15-5.4 57.25-11.89L57.25-11.89 57.25-35.55ZM78.39-35.55L78.39 0 71.06 0 71.06-35.55 78.39-35.55ZM105.75-11.84L113.08-11.84Q112.66-6.1 108.84-2.81 105.02 0.49 98.77 0.49L98.77 0.49Q91.94 0.49 88.02-4.11 84.1-8.72 84.1-16.75L84.1-16.75 84.1-18.92Q84.1-24.05 85.91-27.95 87.71-31.86 91.07-33.95 94.43-36.04 98.87-36.04L98.87-36.04Q105.02-36.04 108.78-32.74 112.54-29.44 113.13-23.49L113.13-23.49 105.8-23.49Q105.53-26.93 103.89-28.48 102.24-30.03 98.87-30.03L98.87-30.03Q95.21-30.03 93.39-27.4 91.57-24.78 91.52-19.26L91.52-19.26 91.52-16.58Q91.52-10.82 93.27-8.15 95.01-5.49 98.77-5.49L98.77-5.49Q102.17-5.49 103.84-7.04 105.51-8.59 105.75-11.84L105.75-11.84ZM138.15 0L129.02-14.26 125.21-10.16 125.21 0 117.89 0 117.89-35.55 125.21-35.55 125.21-19.43 128.43-23.85 137.49-35.55 146.5-35.55 133.88-19.75 146.87 0 138.15 0ZM173.08 0L162.07 0 162.07-35.55 173.01-35.55Q177.69-35.55 181.39-33.44 185.09-31.32 187.17-27.43 189.24-23.54 189.24-18.58L189.24-18.58 189.24-16.94Q189.24-11.99 187.2-8.13 185.17-4.27 181.45-2.15 177.74-0.02 173.08 0L173.08 0ZM173.01-29.61L169.39-29.61 169.39-5.88 172.93-5.88Q177.23-5.88 179.5-8.69 181.77-11.5 181.82-16.72L181.82-16.72 181.82-18.6Q181.82-24.02 179.57-26.82 177.33-29.61 173.01-29.61L173.01-29.61ZM215.95-21.14L215.95-15.41 201.89-15.41 201.89-5.88 218.39-5.88 218.39 0 194.56 0 194.56-35.55 218.34-35.55 218.34-29.61 201.89-29.61 201.89-21.14 215.95-21.14ZM245.22 0L242.75-7.32 229.91-7.32 227.47 0 219.68 0 232.91-35.55 239.7-35.55 253.01 0 245.22 0ZM236.31-26.56L231.89-13.26 240.78-13.26 236.31-26.56ZM263.65-35.55L263.65-5.88 279.2-5.88 279.2 0 256.33 0 256.33-35.55 263.65-35.55ZM301.83-9.33L301.83-9.33Q301.83-11.4 300.37-12.51 298.9-13.62 295.09-14.86 291.28-16.09 289.06-17.29L289.06-17.29Q283.01-20.56 283.01-26.1L283.01-26.1Q283.01-28.98 284.63-31.24 286.25-33.5 289.29-34.77 292.33-36.04 296.12-36.04L296.12-36.04Q299.93-36.04 302.9-34.66 305.88-33.28 307.53-30.76 309.18-28.25 309.18-25.05L309.18-25.05 301.85-25.05Q301.85-27.49 300.32-28.85 298.78-30.2 296-30.2L296-30.2Q293.31-30.2 291.82-29.06 290.33-27.93 290.33-26.07L290.33-26.07Q290.33-24.34 292.08-23.17 293.82-22 297.22-20.97L297.22-20.97Q303.47-19.09 306.32-16.31 309.18-13.53 309.18-9.38L309.18-9.38Q309.18-4.76 305.69-2.14 302.2 0.49 296.29 0.49L296.29 0.49Q292.19 0.49 288.82-1.01 285.45-2.51 283.68-5.13 281.91-7.74 281.91-11.18L281.91-11.18 289.26-11.18Q289.26-5.3 296.29-5.3L296.29-5.3Q298.9-5.3 300.37-6.36 301.83-7.42 301.83-9.33Z" opacity="1" transform="matrix(1,0,0,1,0,0)" fill="#000" class="wordmark-text-0" data-fill-palette-color="primary" id="text-0"></path>
                            </svg></g>
                        </svg></g>
                    </svg></g>
                </svg></g>
              <g><svg viewBox="0 0 104.8126750751234 82.21244201204992" height="82.21244201204992" width="104.8126750751234">
                  <g><svg xmlns="http://www.w3.org/2000/svg" xmlns:xlink="http://www.w3.org/1999/xlink" version="1.1" x="0" y="0" viewBox="0 13.8 128 100.4" style="enable-background:new 0 0 128 128;" xml:space="preserve" height="82.21244201204992" width="104.8126750751234" class="icon-icon-0" data-fill-palette-color="accent" id="icon-0">
                      <g fill="#20bb73" data-fill-palette-color="accent">
                        <polygon points="106.7,42.7 99.6,49.8 113.8,64 99.6,78.2 106.7,85.3 128,64  " fill="#20bb73" data-fill-palette-color="accent"></polygon>
                        <polygon points="14.2,64 28.4,49.8 21.3,42.7 0,64 21.3,85.3 28.4,78.2  " fill="#20bb73" data-fill-palette-color="accent"></polygon>
                        <path d="M100.3 64L85.7 49.4 99.6 35.5 92.5 28.4 78.6 42.3 71.5 35.2 85.4 21.3 77.9 13.8 64 27.7 50.1 13.9 42.6 21.4 56.5 35.3 49.4 42.4 35.6 28.4 28.5 35.5 42.4 49.4 27.7 64 42.3 78.6 28.4 92.4 35.5 99.5 49.4 85.6 56.5 92.7 42.6 106.6 50.1 114.1 64 100.3 77.9 114.2 85.4 106.7 71.5 92.8 78.6 85.7 92.5 99.6 99.6 92.5 85.7 78.6zM64 85.3L42.7 64 64 42.7 85.3 64z" fill="#20bb73" data-fill-palette-color="accent"></path>
                      </g>
                    </svg></g>
                </svg></g>
            </svg></g>
          <defs></defs>
        </svg>
        <rect width="395.52" height="63.35853623238531" fill="none" stroke="none" visibility="hidden"></rect>
      </g>
    </svg></g>
</svg>